<?xml version="1.0" encoding="UTF-8"?>
<svg width="17px" height="7px" viewBox="0 0 17 7" version="1.1" xmlns="http://www.w3.org/2000/svg" xmlns:xlink="http://www.w3.org/1999/xlink">
    <!-- Generator: Sketch 61.2 (89653) - https://sketch.com -->
    <title>Rail</title>
    <desc>Created with Sketch.</desc>
    <g id="Rail" stroke="none" stroke-width="1" fill="none" fill-rule="evenodd">
        <rect id="Rectangle" fill="#BBBBBB" x="0" y="0" width="17" height="7"></rect>
        <circle id="Oval" fill="#9F9F9F" cx="8.5" cy="3.5" r="3"></circle>
        <circle id="Oval" fill="#9F9F9F" cx="0" cy="3.5" r="3"></circle>
        <circle id="Oval" fill="#FFFFFF" cx="8.5" cy="3.5" r="2.5"></circle>
        <circle id="Oval" fill="#FFFFFF" cx="0" cy="3.5" r="2.5"></circle>
        <circle id="Oval" fill="#9F9F9F" cx="17" cy="3.5" r="3"></circle>
        <circle id="Oval" fill="#FFFFFF" cx="17" cy="3.5" r="2.5"></circle>
        <path d="M3.5,6 C4.5,6 4,6 5,6 C5.46946479,6 5.56700932,5.58675528 5.29263361,4.76026583 L5.29264026,4.76026362 C5.02100807,3.94203838 5.02100705,3.0579488 5.29263734,2.23972293 C5.56700844,1.41324098 5.46946266,1 5,1 C4,1 4.5,1 3.5,1 C3.03053521,1 2.93299068,1.41324472 3.20736639,2.23973417 L3.20735974,2.23973638 C3.47899193,3.05796162 3.47899295,3.9420512 3.20736266,4.76027707 C2.93299156,5.58675902 3.03053734,6 3.5,6 Z" id="Path-4" fill="#FFFFFF"></path>
        <path d="M11.9444444,6 C12.9444444,6 12.4444444,6 13.4444444,6 C13.9139092,6 14.0114538,5.58675528 13.737078,4.76026583 L13.7370847,4.76026362 C13.4654525,3.94203838 13.4654515,3.0579488 13.7370818,2.23972293 C14.0114529,1.41324098 13.9139071,1 13.4444444,1 C12.4444444,1 12.9444444,1 11.9444444,1 C11.4749797,1 11.3774351,1.41324472 11.6518108,2.23973417 L11.6518042,2.23973638 C11.9234364,3.05796162 11.9234374,3.9420512 11.6518071,4.76027707 C11.377436,5.58675902 11.4749818,6 11.9444444,6 Z" id="Path-4" fill="#FFFFFF"></path>
    </g>
</svg>