<?xml version="1.0" encoding="UTF-8"?>
<svg width="60px" height="60px" viewBox="0 0 60 60" version="1.1" xmlns="http://www.w3.org/2000/svg" xmlns:xlink="http://www.w3.org/1999/xlink">
    <!-- Generator: Sketch 61.2 (89653) - https://sketch.com -->
    <title>TIre</title>
    <desc>Created with Sketch.</desc>
    <defs>
        <circle id="path-1" cx="30" cy="30" r="12"></circle>
        <filter x="-8.3%" y="-8.3%" width="116.7%" height="116.7%" filterUnits="objectBoundingBox" id="filter-2">
            <feMorphology radius="1" operator="erode" in="SourceAlpha" result="shadowSpreadInner1"></feMorphology>
            <feGaussianBlur stdDeviation="1.5" in="shadowSpreadInner1" result="shadowBlurInner1"></feGaussianBlur>
            <feOffset dx="0" dy="0" in="shadowBlurInner1" result="shadowOffsetInner1"></feOffset>
            <feComposite in="shadowOffsetInner1" in2="SourceAlpha" operator="arithmetic" k2="-1" k3="1" result="shadowInnerInner1"></feComposite>
            <feColorMatrix values="0 0 0 0 0   0 0 0 0 0   0 0 0 0 0  0 0 0 0.75 0" type="matrix" in="shadowInnerInner1"></feColorMatrix>
        </filter>
        <path d="M30,35 C31.1045695,35 32,35.8954305 32,37 C32,38.1045695 31.1045695,39 30,39 C28.8954305,39 28,38.1045695 28,37 C28,35.8954305 28.8954305,35 30,35 Z M34.330127,32.5 C34.8824118,31.5434148 36.1055926,31.2156644 37.0621778,31.7679492 C38.0187631,32.3202339 38.3465134,33.5434148 37.7942286,34.5 C37.2419439,35.4565852 36.0187631,35.7843356 35.0621778,35.2320508 C34.1055926,34.6797661 33.7778423,33.4565852 34.330127,32.5 Z M22.9378222,31.7679492 C23.8944074,31.2156644 25.1175882,31.5434148 25.669873,32.5 C26.2221577,33.4565852 25.8944074,34.6797661 24.9378222,35.2320508 C23.9812369,35.7843356 22.7580561,35.4565852 22.2057714,34.5 C21.6534866,33.5434148 21.9812369,32.3202339 22.9378222,31.7679492 Z M35.0621778,24.7679492 C36.0187631,24.2156644 37.2419439,24.5434148 37.7942286,25.5 C38.3465134,26.4565852 38.0187631,27.6797661 37.0621778,28.2320508 C36.1055926,28.7843356 34.8824118,28.4565852 34.330127,27.5 C33.7778423,26.5434148 34.1055926,25.3202339 35.0621778,24.7679492 Z M22.2057714,25.5 C22.7580561,24.5434148 23.9812369,24.2156644 24.9378222,24.7679492 C25.8944074,25.3202339 26.2221577,26.5434148 25.669873,27.5 C25.1175882,28.4565852 23.8944074,28.7843356 22.9378222,28.2320508 C21.9812369,27.6797661 21.6534866,26.4565852 22.2057714,25.5 Z M30,21 C31.1045695,21 32,21.8954305 32,23 C32,24.1045695 31.1045695,25 30,25 C28.8954305,25 28,24.1045695 28,23 C28,21.8954305 28.8954305,21 30,21 Z" id="path-3"></path>
        <filter x="-0.3%" y="-0.3%" width="100.6%" height="100.6%" filterUnits="objectBoundingBox" id="filter-4">
            <feGaussianBlur stdDeviation="0.05" in="SourceAlpha" result="shadowBlurInner1"></feGaussianBlur>
            <feOffset dx="0" dy="0" in="shadowBlurInner1" result="shadowOffsetInner1"></feOffset>
            <feComposite in="shadowOffsetInner1" in2="SourceAlpha" operator="arithmetic" k2="-1" k3="1" result="shadowInnerInner1"></feComposite>
            <feColorMatrix values="0 0 0 0 0   0 0 0 0 0   0 0 0 0 0  0 0 0 0.57 0" type="matrix" in="shadowInnerInner1"></feColorMatrix>
        </filter>
        <linearGradient x1="0%" y1="100%" x2="100%" y2="100%" id="linearGradient-5">
            <stop stop-color="#808080" offset="0%"></stop>
            <stop stop-color="#D2D2D2" offset="50.1325417%"></stop>
            <stop stop-color="#808080" offset="100%"></stop>
        </linearGradient>
        <path d="M29.6,28 L30.4,28 C30.4552285,28 30.5,28.0447715 30.5,28.1 L30.5,29.4 C30.5,29.4552285 30.5447715,29.5 30.6,29.5 L31.9,29.5 C31.9552285,29.5 32,29.5447715 32,29.6 L32,30.4 C32,30.4552285 31.9552285,30.5 31.9,30.5 L30.6,30.5 C30.5447715,30.5 30.5,30.5447715 30.5,30.6 L30.5,31.9 C30.5,31.9552285 30.4552285,32 30.4,32 L29.6,32 C29.5447715,32 29.5,31.9552285 29.5,31.9 L29.5,30.6 C29.5,30.5447715 29.4552285,30.5 29.4,30.5 L28.1,30.5 C28.0447715,30.5 28,30.4552285 28,30.4 L28,29.6 C28,29.5447715 28.0447715,29.5 28.1,29.5 L29.4,29.5 C29.4552285,29.5 29.5,29.4552285 29.5,29.4 L29.5,28.1 C29.5,28.0447715 29.5447715,28 29.6,28 Z" id="path-6"></path>
        <filter x="-1.2%" y="-1.2%" width="102.5%" height="102.5%" filterUnits="objectBoundingBox" id="filter-7">
            <feGaussianBlur stdDeviation="0.05" in="SourceAlpha" result="shadowBlurInner1"></feGaussianBlur>
            <feOffset dx="0" dy="0" in="shadowBlurInner1" result="shadowOffsetInner1"></feOffset>
            <feComposite in="shadowOffsetInner1" in2="SourceAlpha" operator="arithmetic" k2="-1" k3="1" result="shadowInnerInner1"></feComposite>
            <feColorMatrix values="0 0 0 0 0   0 0 0 0 0   0 0 0 0 0  0 0 0 0.75 0" type="matrix" in="shadowInnerInner1"></feColorMatrix>
        </filter>
    </defs>
    <g id="TIre" stroke="none" stroke-width="1" fill="none" fill-rule="evenodd">
        <path d="M29.9995792,0.502377839 L24.2924327,1.05491176 L18.7551954,2.72457466 L13.6500897,5.44241686 L9.17330179,9.10399321 L5.49687226,13.5685914 L2.76208419,18.6646394 L1.07403395,24.1962989 L0.497592363,29.9509914 L1.05491176,35.7075673 L2.72457466,41.2448046 L5.44241686,46.3499103 L9.10399321,50.8266982 L13.5685914,54.5031277 L18.6646394,57.2379158 L24.1962989,58.925966 L29.9509914,59.5024076 L35.7075673,58.9450882 L41.2448046,57.2754253 L46.3499103,54.5575831 L50.8266982,50.8960068 L54.5031277,46.4314086 L57.2379158,41.3353606 L58.925966,35.8037011 L59.5024076,30.0490086 L58.9450882,24.2924327 L57.2754253,18.7551954 L54.5575831,13.6500897 L50.8960068,9.17330179 L46.4314086,5.49687226 L41.3353606,2.76208419 L35.8037011,1.07403395 L29.9995792,0.502377839 Z" id="Polygon" stroke="#434343" transform="translate(30.000000, 30.000000) rotate(5.625000) translate(-30.000000, -30.000000) "></path>
        <path d="M30,2.50725786 L24.6364321,3.03552319 L19.4789831,4.60001824 L14.7258508,7.14062035 L10.5596956,10.5596956 L7.14062035,14.7258508 L4.60001824,19.4789831 L3.03552319,24.6364321 L2.50725786,30 L3.03552319,35.3635679 L4.60001824,40.5210169 L7.14062035,45.2741492 L10.5596956,49.4403044 L14.7258508,52.8593796 L19.4789831,55.3999818 L24.6364321,56.9644768 L30,57.4927421 L35.3635679,56.9644768 L40.5210169,55.3999818 L45.2741492,52.8593796 L49.4403044,49.4403044 L52.8593796,45.2741492 L55.3999818,40.5210169 L56.9644768,35.3635679 L57.4927421,30 L56.9644768,24.6364321 L55.3999818,19.4789831 L52.8593796,14.7258508 L49.4403044,10.5596956 L45.2741492,7.14062035 L40.5210169,4.60001824 L35.3635679,3.03552319 L30,2.50725786 Z" id="Polygon" stroke="#454545" stroke-width="3" transform="translate(30.000000, 30.000000) rotate(5.625000) translate(-30.000000, -30.000000) "></path>
        <path d="M30,7.01451572 L25.5157545,7.45617535 L21.203836,8.76418153 L17.2299491,10.8882683 L13.7468082,13.7468082 L10.8882683,17.2299491 L8.76418153,21.203836 L7.45617535,25.5157545 L7.01451572,30 L7.45617535,34.4842455 L8.76418153,38.796164 L10.8882683,42.7700509 L13.7468082,46.2531918 L17.2299491,49.1117317 L21.203836,51.2358185 L25.5157545,52.5438246 L30,52.9854843 L34.4842455,52.5438246 L38.796164,51.2358185 L42.7700509,49.1117317 L46.2531918,46.2531918 L49.1117317,42.7700509 L51.2358185,38.796164 L52.5438246,34.4842455 L52.9854843,30 L52.5438246,25.5157545 L51.2358185,21.203836 L49.1117317,17.2299491 L46.2531918,13.7468082 L42.7700509,10.8882683 L38.796164,8.76418153 L34.4842455,7.45617535 L30,7.01451572 Z" id="Polygon" stroke="#4B4B4B" stroke-width="6" transform="translate(30.000000, 30.000000) rotate(5.625000) translate(-30.000000, -30.000000) "></path>
        <circle id="Oval" stroke="#3D3D3D" stroke-width="4" cx="30" cy="30" r="18"></circle>
        <circle id="Oval" stroke="#222222" stroke-width="2" cx="30" cy="30" r="15"></circle>
        <path d="M35.5986913,49.1835844 L37.2343589,54.977943 L32.326223,55.931988 L31.6721826,49.9468204 C32.5574607,49.8426542 33.2182391,49.7481691 33.6545179,49.6633652 C34.0907966,49.5785612 34.7388544,49.4186342 35.5986913,49.1835844 Z M24.4013087,49.1835844 C25.2611456,49.4186342 25.9092034,49.5785612 26.3454821,49.6633652 C26.7817609,49.7481691 27.4425393,49.8426542 28.3278174,49.9468204 L27.673777,55.931988 L22.7656411,54.977943 L24.4013087,49.1835844 Z M42.1616349,45.8659896 L45.7651746,50.6893185 L41.5249341,53.3389149 L38.7694425,47.9856666 C39.558591,47.5711638 40.1416204,47.2461526 40.5185307,47.0106329 C40.8954409,46.7751133 41.4431424,46.3935655 42.1616349,45.8659896 Z M17.8383651,45.8659896 C18.5568576,46.3935655 19.1045591,46.7751133 19.4814693,47.0106329 C19.8583796,47.2461526 20.441409,47.5711638 21.2305575,47.9856666 L18.4750659,53.3389149 L14.2348254,50.6893185 L17.8383651,45.8659896 Z M47.082318,40.3976171 L52.1750386,43.6091895 L49.1659635,47.602367 L44.6750579,43.5921591 C45.263247,42.9223819 45.6910782,42.4100187 45.9585515,42.0550696 C46.2260249,41.7001205 46.6006137,41.1476363 47.082318,40.3976171 Z M12.917682,40.3976171 C13.3993863,41.1476363 13.7739751,41.7001205 14.0414485,42.0550696 C14.3089218,42.4100187 14.736753,42.9223819 15.3249421,43.5921591 L10.8340365,47.602367 L7.82496141,43.6091895 L12.917682,40.3976171 Z M49.6932969,33.517447 L55.5986857,34.6906403 L54.2204989,39.4969488 L48.5907474,37.3624938 C48.8998425,36.5264148 49.1156428,35.8947616 49.2381483,35.4675341 C49.3606538,35.0403067 49.51237,34.3902777 49.6932969,33.517447 Z M10.3067031,33.517447 C10.48763,34.3902777 10.6393462,35.0403067 10.7618517,35.4675341 C10.8843572,35.8947616 11.1001575,36.5264148 11.4092526,37.3624938 L5.77950107,39.4969488 L4.40131429,34.6906403 L10.3067031,33.517447 Z M55.5730074,25.1351006 L56.0087861,30.1160741 L49.98804,30.1409112 C49.9769812,29.2495944 49.9520839,28.5825594 49.913348,28.1398062 C49.8746121,27.697053 49.7833018,27.0358284 49.6394171,26.1561324 L55.5730074,25.1351006 Z M4.42699263,25.1351006 L10.3605829,26.1561324 C10.2166982,27.0358284 10.1253879,27.697053 10.086652,28.1398062 C10.0479161,28.5825594 10.0230188,29.2495944 10.01196,30.1409112 L3.99121391,30.1160741 L4.42699263,25.1351006 Z M52.0996936,16.2304931 L54.2915494,20.7244633 L48.6795995,22.9052932 C48.3498559,22.0771404 48.0875683,21.463332 47.8927366,21.063868 C47.697905,20.664404 47.3756978,20.0798203 46.9261149,19.310117 L52.0996936,16.2304931 Z M7.90030636,16.2304931 L13.0738851,19.310117 C12.6243022,20.0798203 12.302095,20.664404 12.1072634,21.063868 C11.9124317,21.463332 11.6501441,22.0771404 11.3204005,22.9052932 L5.70845062,20.7244633 L7.90030636,16.2304931 Z M45.57716,9.1744348 L49.2928841,12.5200878 L44.9065281,16.6443915 C44.2905636,16.0000657 43.8174381,15.5292072 43.4871515,15.2318158 C43.1568649,14.9344244 42.6391307,14.5131088 41.9339488,13.9678691 L45.57716,9.1744348 Z M14.42284,9.1744348 L18.0660512,13.9678691 C17.3608693,14.5131088 16.8431351,14.9344244 16.5128485,15.2318158 C16.1825619,15.5292072 15.7094364,16.0000657 15.0934719,16.6443915 L10.7071159,12.5200878 L14.42284,9.1744348 Z M37.0135869,4.94972479 L41.6814891,6.74156454 L39.0644912,12.1638631 C38.2585331,11.7830751 37.6480917,11.5130438 37.2331671,11.3537692 C36.8182425,11.1944945 36.1839099,10.9867019 35.3301695,10.7303913 L37.0135869,4.94972479 Z M22.9864131,4.94972479 L24.6698305,10.7303913 C23.8160901,10.9867019 23.1817575,11.1944945 22.7668329,11.3537692 C22.3519083,11.5130438 21.7414669,11.7830751 20.9355088,12.1638631 L18.3185109,6.74156454 L22.9864131,4.94972479 Z M32.5,4.1 L32,10.1 C31.1111111,10.0333333 30.4444444,10 30,10 C29.5555556,10 28.8888889,10.0333333 28,10.1 L27.5,4.1 L32.5,4.1 Z" id="Combined-Shape" fill="#535353"></path>
        <path d="M37.205768,54.983394 L38.0972805,56.9494066 L32.2075174,58.0942606 L32.2976321,55.937439 L37.205768,54.983394 Z M22.794232,54.983394 L27.7023679,55.937439 L27.7924826,58.0942606 L21.9027195,56.9494066 L22.794232,54.983394 Z M45.7510518,50.6981031 L47.2879063,52.2140445 L42.1996177,55.3935601 L41.5108113,53.3476995 L45.7510518,50.6981031 Z M14.2489482,50.6981031 L18.4891887,53.3476995 L17.8003823,55.3935601 L12.7120937,52.2140445 L14.2489482,50.6981031 Z M52.1725345,43.6125089 L54.1505766,44.4770027 L50.5396865,49.2688158 L49.1634594,47.6056865 L52.1725345,43.6125089 Z M7.82746545,43.6125089 L10.8365406,47.6056865 L9.46031351,49.2688158 L5.84942337,44.4770027 L7.82746545,43.6125089 Z M55.6009697,34.6826441 L57.7574379,34.7808517 L56.1036138,40.5484219 L54.2227829,39.4889526 L55.6009697,34.6826441 Z M4.39903031,34.6826441 L5.77721709,39.4889526 L3.8963862,40.5484219 L2.24256207,34.7808517 L4.39903031,34.6826441 Z M57.6195733,24.4332701 L58.1425077,30.4104383 L56.006921,30.095368 L55.5711423,25.1143945 L57.6195733,24.4332701 Z M2.38042674,24.4332701 L4.42885774,25.1143945 L3.99307902,30.095368 L1.85749229,30.4104383 L2.38042674,24.4332701 Z M53.753271,14.8306795 L56.3834979,20.2234437 L54.2768448,20.6946261 L52.0849891,16.2006559 L53.753271,14.8306795 Z M6.24672899,14.8306795 L7.91501091,16.2006559 L5.72315518,20.6946261 L3.61650211,20.2234437 L6.24672899,14.8306795 Z M46.6292503,7.2960158 L51.0881192,11.3107994 L49.3113725,12.5368383 L45.5956484,9.19118523 L46.6292503,7.2960158 Z M13.3707497,7.2960158 L14.4043516,9.19118523 L10.6886275,12.5368383 L8.91188079,11.3107994 L13.3707497,7.2960158 Z M37.311008,2.81451012 L42.9124905,4.96471782 L41.6931276,6.74605274 L37.0252255,4.95421299 L37.311008,2.81451012 Z M22.688992,2.81451012 L22.9747745,4.95421299 L18.3068724,6.74605274 L17.0875095,4.96471782 L22.688992,2.81451012 Z M33,2 L32.5,4.1 L27.5,4.1 L27,2 L33,2 Z" id="Combined-Shape" fill="#585858"></path>
        <path d="M38.0828086,56.9521657 L38.4644266,58.9154201 L32.5746635,60.0602741 L32.1930455,58.0970197 L38.0828086,56.9521657 Z M21.9171914,56.9521657 L27.8069545,58.0970197 L27.4253365,60.0602741 L21.5355734,58.9154201 L21.9171914,56.9521657 Z M47.2807577,52.218491 L48.3405963,53.9145872 L43.2523077,57.0941028 L42.1924692,55.3980066 L47.2807577,52.218491 Z M12.7192423,52.218491 L17.8075308,55.3980066 L16.7476923,57.0941028 L11.6594037,53.9145872 L12.7192423,52.218491 Z M54.1493092,44.4786829 L55.7465802,45.6823129 L52.13569,50.474126 L50.538419,49.270496 L54.1493092,44.4786829 Z M5.85069085,44.4786829 L9.46158099,49.270496 L7.86430997,50.474126 L4.25341983,45.6823129 L5.85069085,44.4786829 Z M57.758594,34.7768043 L59.6811174,35.328079 L58.0272933,41.0956492 L56.1047699,40.5443744 L57.758594,34.7768043 Z M2.24140598,34.7768043 L3.89523011,40.5443744 L1.97270672,41.0956492 L0.318882585,35.328079 L2.24140598,34.7768043 Z M59.6110186,24.2484777 L60.133953,30.2256459 L58.1415636,30.3999574 L57.6186292,24.4227892 L59.6110186,24.2484777 Z M0.388981418,24.2484777 L2.38137081,24.4227892 L1.85843636,30.3999574 L-0.133953039,30.2256459 L0.388981418,24.2484777 Z M55.5434161,13.9388344 L58.1736429,19.3315987 L56.3760548,20.208341 L53.745828,14.8155767 L55.5434161,13.9388344 Z M4.45658394,13.9388344 L6.25417204,14.8155767 L3.62394516,20.208341 L1.82635706,19.3315987 L4.45658394,13.9388344 Z M47.9768698,5.81820476 L52.4357387,9.83298839 L51.0974775,11.319278 L46.6386086,7.30449441 L47.9768698,5.81820476 Z M12.0231302,5.81820476 L13.3613914,7.30449441 L8.90252246,11.319278 L7.56426125,9.83298839 L12.0231302,5.81820476 Z M38.033635,0.949621072 L43.6351175,3.09982877 L42.9183816,4.96698962 L37.3168991,2.81678193 L38.033635,0.949621072 Z M21.966365,0.949621072 L22.6831009,2.81678193 L17.0816184,4.96698962 L16.3648825,3.09982877 L21.966365,0.949621072 Z M33,0 L33,2 L27,2 L27,0 L33,0 Z" id="Combined-Shape" fill="#585858"></path>
        <circle id="Oval" stroke="#B8B8B8" stroke-width="2" cx="30" cy="30" r="13"></circle>
        <g id="Oval">
            <use fill="#D8D8D8" fill-rule="evenodd" xlink:href="#path-1"></use>
            <use fill="black" fill-opacity="1" filter="url(#filter-2)" xlink:href="#path-1"></use>
            <circle stroke="#A7A7A7" stroke-width="1" stroke-linejoin="square" cx="30" cy="30" r="11.5"></circle>
        </g>
        <rect id="Rectangle" stroke="#979797" fill="#D8D8D8" x="29.5" y="29.5" width="1" height="1"></rect>
        <g id="Combined-Shape">
            <use fill="#FFFFFF" fill-rule="evenodd" xlink:href="#path-3"></use>
            <use fill="black" fill-opacity="1" filter="url(#filter-4)" xlink:href="#path-3"></use>
        </g>
        <polygon id="Rectangle" fill="url(#linearGradient-5)" transform="translate(33.500000, 23.937822) rotate(30.000000) translate(-33.500000, -23.937822) " points="32.5 19.9378222 34.5 19.9378222 35 27.9378222 32 27.9378222"></polygon>
        <polygon id="Rectangle" fill="#D2D2D2" transform="translate(32.633975, 23.437822) rotate(30.000000) translate(-32.633975, -23.437822) " points="32.6339746 19.4378222 33.1339746 19.4378222 32.6339746 27.4378222 32.1339746 27.4378222"></polygon>
        <polygon id="Rectangle" fill="#D2D2D2" transform="translate(34.366025, 24.437822) rotate(30.000000) translate(-34.366025, -24.437822) " points="33.8660254 20.4378222 34.3660254 20.4378222 34.8660254 28.4378222 34.3660254 28.4378222"></polygon>
        <circle id="Oval" fill="#E2E2E2" cx="30" cy="30" r="3"></circle>
        <g id="Path-3">
            <use fill="#FFFFFF" fill-rule="evenodd" xlink:href="#path-6"></use>
            <use fill="black" fill-opacity="1" filter="url(#filter-7)" xlink:href="#path-6"></use>
        </g>
        <polygon id="Rectangle" fill="url(#linearGradient-5)" transform="translate(37.000000, 30.000000) rotate(90.000000) translate(-37.000000, -30.000000) " points="36 26 38 26 38.5 34 35.5 34"></polygon>
        <polygon id="Rectangle" fill="url(#linearGradient-5)" transform="translate(33.500000, 36.062178) rotate(150.000000) translate(-33.500000, -36.062178) " points="32.5 32.0621778 34.5 32.0621778 35 40.0621778 32 40.0621778"></polygon>
        <polygon id="Rectangle" fill="url(#linearGradient-5)" transform="translate(26.500000, 36.062178) rotate(210.000000) translate(-26.500000, -36.062178) " points="25.5 32.0621778 27.5 32.0621778 28 40.0621778 25 40.0621778"></polygon>
        <polygon id="Rectangle" fill="url(#linearGradient-5)" transform="translate(23.000000, 30.000000) rotate(270.000000) translate(-23.000000, -30.000000) " points="22 26 24 26 24.5 34 21.5 34"></polygon>
        <polygon id="Rectangle" fill="url(#linearGradient-5)" transform="translate(26.500000, 23.937822) rotate(330.000000) translate(-26.500000, -23.937822) " points="25.5 19.9378222 27.5 19.9378222 28 27.9378222 25 27.9378222"></polygon>
        <polygon id="Rectangle" fill="#D2D2D2" transform="translate(37.000000, 31.000000) rotate(90.000000) translate(-37.000000, -31.000000) " points="36.5 27 37 27 37.5 35 37 35"></polygon>
        <polygon id="Rectangle" fill="#D2D2D2" transform="translate(32.633975, 36.562178) rotate(150.000000) translate(-32.633975, -36.562178) " points="32.1339746 32.5621778 32.6339746 32.5621778 33.1339746 40.5621778 32.6339746 40.5621778"></polygon>
        <polygon id="Rectangle" fill="#D2D2D2" transform="translate(25.633975, 35.562178) rotate(210.000000) translate(-25.633975, -35.562178) " points="25.1339746 31.5621778 25.6339746 31.5621778 26.1339746 39.5621778 25.6339746 39.5621778"></polygon>
        <polygon id="Rectangle" fill="#D2D2D2" transform="translate(23.000000, 29.000000) rotate(270.000000) translate(-23.000000, -29.000000) " points="22.5 25 23 25 23.5 33 23 33"></polygon>
        <polygon id="Rectangle" fill="#D2D2D2" transform="translate(27.366025, 23.437822) rotate(330.000000) translate(-27.366025, -23.437822) " points="26.8660254 19.4378222 27.3660254 19.4378222 27.8660254 27.4378222 27.3660254 27.4378222"></polygon>
        <polygon id="Rectangle" fill="#D2D2D2" transform="translate(37.000000, 29.000000) rotate(90.000000) translate(-37.000000, -29.000000) " points="37 25 37.5 25 37 33 36.5 33"></polygon>
        <polygon id="Rectangle" fill="#D2D2D2" transform="translate(34.366025, 35.562178) rotate(150.000000) translate(-34.366025, -35.562178) " points="34.3660254 31.5621778 34.8660254 31.5621778 34.3660254 39.5621778 33.8660254 39.5621778"></polygon>
        <polygon id="Rectangle" fill="#D2D2D2" transform="translate(27.366025, 36.562178) rotate(210.000000) translate(-27.366025, -36.562178) " points="27.3660254 32.5621778 27.8660254 32.5621778 27.3660254 40.5621778 26.8660254 40.5621778"></polygon>
        <polygon id="Rectangle" fill="#D2D2D2" transform="translate(23.000000, 31.000000) rotate(270.000000) translate(-23.000000, -31.000000) " points="23 27 23.5 27 23 35 22.5 35"></polygon>
        <polygon id="Rectangle" fill="#D2D2D2" transform="translate(25.633975, 24.437822) rotate(330.000000) translate(-25.633975, -24.437822) " points="25.6339746 20.4378222 26.1339746 20.4378222 25.6339746 28.4378222 25.1339746 28.4378222"></polygon>
    </g>
</svg>